<svg xmlns="http://www.w3.org/2000/svg" viewBox="0 0 600 600" role="img">
  <rect width="600" height="600" fill="#F2EEE9"/>
  <circle cx="300" cy="310" r="235" fill="#EDE662" opacity="0.35"/>
  
  <g>
    <rect x="196" y="200" width="60" height="130" rx="12" fill="#F5C542" stroke="#3D1D02" stroke-width="7"/>
        <rect x="200" y="188" width="52" height="16" rx="6" fill="#C9C2B8" stroke="#3D1D02" stroke-width="5"/><rect x="272" y="200" width="60" height="130" rx="12" fill="#D98324" stroke="#3D1D02" stroke-width="7"/>
        <rect x="276" y="188" width="52" height="16" rx="6" fill="#C9C2B8" stroke="#3D1D02" stroke-width="5"/><rect x="348" y="200" width="60" height="130" rx="12" fill="#3A2010" stroke="#3D1D02" stroke-width="7"/>
        <rect x="352" y="188" width="52" height="16" rx="6" fill="#C9C2B8" stroke="#3D1D02" stroke-width="5"/>
    <path d="M158 312 h284 l-20 158 q-2 18 -20 18 h-204 q-18 0 -20 -18 z" fill="#823B00" stroke="#3D1D02" stroke-width="10" stroke-linejoin="round"/>
    <g transform="translate(225.0 360.0) rotate(-2 75.0 32.0)">
      <rect width="150" height="64" rx="8" fill="#EDE662"/>
      <rect x="7" y="7" width="136" height="50" rx="5" fill="none" stroke="#823B00" stroke-width="4"/>
      <text x="75.0" y="44.0" font-family="Archivo Black, Arial Black, sans-serif" font-size="32" font-weight="900" fill="#823B00" text-anchor="middle" letter-spacing="1">sl&#252;rk</text>
    </g>
  </g>
</svg>